<svg id="Component_3_1" data-name="Component 3 – 1" xmlns="http://www.w3.org/2000/svg" width="300.534" height="100" viewBox="0 0 300.534 100">
  <g id="Group_1" data-name="Group 1" transform="translate(-730.251 -116.148)">
    <path id="Path_1" data-name="Path 1" d="M827.195,158.787,802.8,133.8l.111-.114L789.221,119.7a11.788,11.788,0,0,0-8.574-3.55c-.114,0-.228.013-.34.012-.23.01-.462.01-.695.032-.353.035-.708.089-1.068.157a11.773,11.773,0,0,0-6.226,3.3L759.7,132.376l.013.011-26.285,26.007a10.707,10.707,0,0,0-.125,15.107l25.371,25.96.019-.021,13.436,13.535a10.991,10.991,0,0,0,15.456-.005L827.07,173.9A10.715,10.715,0,0,0,827.195,158.787Z" transform="translate(0 0)" fill="#002f99"/>
    <path id="Path_2" data-name="Path 2" d="M774.83,176.4l-7.256,7.262a2.793,2.793,0,0,1-3.938,0l-7.258-7.258a2.771,2.771,0,0,1,0-3.934l7.258-7.263a2.779,2.779,0,0,1,3.937,0l7.257,7.252A2.787,2.787,0,0,1,774.83,176.4Z" transform="translate(2.284 4.375)" fill="#fff"/>
    <path id="Path_3" data-name="Path 3" d="M786.27,165l-7.26,7.262a2.777,2.777,0,0,1-3.931,0l-7.263-7.258a2.785,2.785,0,0,1,0-3.939l7.262-7.254a2.772,2.772,0,0,1,3.932,0l7.263,7.259A2.782,2.782,0,0,1,786.27,165Z" transform="translate(3.316 3.342)" fill="#24c4a3"/>
    <path id="Path_4" data-name="Path 4" d="M797.714,176.561l-7.261,7.254a2.775,2.775,0,0,1-3.931.007l-7.262-7.264a2.785,2.785,0,0,1,0-3.939l7.261-7.258a2.777,2.777,0,0,1,3.931,0l7.262,7.256A2.8,2.8,0,0,1,797.714,176.561Z" transform="translate(4.349 4.39)" fill="#fff"/>
    <path id="Path_5" data-name="Path 5" d="M774.914,153.441l-7.258,7.257a2.773,2.773,0,0,1-3.934,0l-7.266-7.256a2.79,2.79,0,0,1,0-3.939l7.262-7.258a2.782,2.782,0,0,1,3.934,0l7.26,7.256A2.782,2.782,0,0,1,774.914,153.441Z" transform="translate(2.291 2.294)" fill="#fff"/>
    <path id="Path_6" data-name="Path 6" d="M763.383,164.73l-7.259,7.263a2.783,2.783,0,0,1-3.934-.01l-7.262-7.252a2.778,2.778,0,0,1,0-3.934l7.257-7.264a2.785,2.785,0,0,1,3.938,0l7.258,7.257A2.776,2.776,0,0,1,763.383,164.73Z" transform="translate(1.251 3.317)" fill="#fff"/>
    <path id="Path_7" data-name="Path 7" d="M797.881,153.592l-7.257,7.258a2.78,2.78,0,0,1-3.939,0l-7.259-7.256a2.791,2.791,0,0,1,0-3.94l7.263-7.258a2.785,2.785,0,0,1,3.934,0l7.26,7.259A2.787,2.787,0,0,1,797.881,153.592Z" transform="translate(4.364 2.307)" fill="#fff"/>
    <path id="Path_8" data-name="Path 8" d="M809.3,165.2l-7.258,7.258a2.783,2.783,0,0,1-3.938,0l-7.26-7.259a2.787,2.787,0,0,1,0-3.939l7.261-7.251a2.773,2.773,0,0,1,3.933,0l7.26,7.254A2.789,2.789,0,0,1,809.3,165.2Z" transform="translate(5.113 3.36)" fill="#fff"/>
  </g>
  <g id="Group_2" data-name="Group 2" transform="translate(-709.251 -105.71)">
    <path id="Path_9" data-name="Path 9" d="M864.888,157.792l-18.957-.184-.191,20.166-5.956-.057.431-45.662,27.985.272-.047,4.923-22.027-.213-.148,15.649,18.955.183Z" transform="translate(0 -0.084)" fill="#002f99"/>
    <path id="Path_10" data-name="Path 10" d="M885.587,135.033a3.485,3.485,0,0,1,.875-2.375A3.188,3.188,0,0,1,889,131.71a3.238,3.238,0,0,1,2.534,1,3.446,3.446,0,0,1,.847,2.391,3.332,3.332,0,0,1-.891,2.343,3.3,3.3,0,0,1-2.553.916,3.25,3.25,0,0,1-2.52-.965A3.37,3.37,0,0,1,885.587,135.033Zm5.8,42.987-5.739-.055.322-33.928,5.739.055Z" transform="translate(-10.587 0)" fill="#002f99"/>
    <path id="Path_11" data-name="Path 11" d="M911.136,147.917l.146,4.221a12.229,12.229,0,0,1,10.1-4.744q10.642.1,10.621,12.109l-.213,22.182-5.74-.054.213-22.213q0-3.632-1.608-5.384t-5.056-1.786a8.286,8.286,0,0,0-4.916,1.442,10.106,10.106,0,0,0-3.326,3.877l-.229,23.92-5.74-.055.322-33.568Z" transform="translate(-15.05 -3.325)" fill="#002f99"/>
    <path id="Path_12" data-name="Path 12" d="M958.685,137.8l-.077,8.222,6.266.061-.042,4.489-6.266-.062-.2,21.086a4.751,4.751,0,0,0,.809,3.072,3.5,3.5,0,0,0,2.844,1.049,13.742,13.742,0,0,0,2.733-.351l-.045,4.68a16.468,16.468,0,0,1-4.41.582,7.111,7.111,0,0,1-5.78-2.41,10.2,10.2,0,0,1-1.892-6.7l.2-21.06-6.112-.059.042-4.488,6.112.059.077-8.222Z" transform="translate(-24.616 -1.468)" fill="#002f99"/>
    <path id="Path_13" data-name="Path 13" d="M998.36,173.412a4.23,4.23,0,0,0-1.719-3.632,16.9,16.9,0,0,0-6.09-2.277,28.81,28.81,0,0,1-6.9-2.3,9.846,9.846,0,0,1-3.755-3.138,7.427,7.427,0,0,1-1.184-4.293,8.709,8.709,0,0,1,3.558-6.948,13.635,13.635,0,0,1,8.945-2.769,14.035,14.035,0,0,1,9.234,3.037,9.363,9.363,0,0,1,3.479,7.573l-5.77-.056a5.183,5.183,0,0,0-1.963-4.082,7.5,7.5,0,0,0-5.024-1.755,7.84,7.84,0,0,0-4.915,1.318,4.29,4.29,0,0,0-1.8,3.55,3.474,3.474,0,0,0,1.614,3.148,20.116,20.116,0,0,0,5.92,2.073,30.925,30.925,0,0,1,6.943,2.364,10.146,10.146,0,0,1,3.925,3.249,7.9,7.9,0,0,1,1.243,4.588,8.589,8.589,0,0,1-3.667,7.179,15.091,15.091,0,0,1-9.364,2.626,16.882,16.882,0,0,1-7.122-1.5,11.6,11.6,0,0,1-4.818-4.032,9.592,9.592,0,0,1-1.7-5.554l5.74.055a5.931,5.931,0,0,0,2.267,4.6,8.962,8.962,0,0,0,5.677,1.746,9.262,9.262,0,0,0,5.24-1.269A4.052,4.052,0,0,0,998.36,173.412Z" transform="translate(-31.579 -3.486)" fill="#002f99"/>
    <path id="Path_14" data-name="Path 14" d="M1020.648,165.439a19.821,19.821,0,0,1,2.023-8.855,14.477,14.477,0,0,1,5.458-6.028,14.691,14.691,0,0,1,7.916-2.065,14.15,14.15,0,0,1,11.044,4.853q4.189,4.787,4.115,12.667l0,.4a19.988,19.988,0,0,1-1.962,8.777,14.252,14.252,0,0,1-5.424,6.014,14.866,14.866,0,0,1-8.041,2.1,14.127,14.127,0,0,1-11.015-4.853q-4.189-4.787-4.114-12.606Zm5.764.738a14.361,14.361,0,0,0,2.5,8.992,8.779,8.779,0,0,0,13.883.086q2.607-3.4,2.666-9.578a14.333,14.333,0,0,0-2.534-8.976,8.334,8.334,0,0,0-6.932-3.494,8.242,8.242,0,0,0-6.889,3.316Q1026.473,159.879,1026.413,166.176Z" transform="translate(-41.421 -3.592)" fill="#002f99"/>
  </g>
</svg>
